<?xml version="1.0" standalone="no"?>
<!DOCTYPE svg PUBLIC "-//W3C//DTD SVG 20010904//EN"
 "http://www.w3.org/TR/2001/REC-SVG-20010904/DTD/svg10.dtd">
<svg version="1.0" xmlns="http://www.w3.org/2000/svg"
 width="1874.000000pt" height="1874.000000pt" viewBox="0 0 1874.000000 1874.000000"
 preserveAspectRatio="xMidYMid meet">
<metadata>
Created by potrace 1.14, written by Peter Selinger 2001-2017
</metadata>
<g transform="translate(0.000000,1874.000000) scale(0.100000,-0.100000)"
fill="#000000" stroke="none">
<path d="M13805 18720 c-161 -25 -287 -89 -405 -209 -143 -144 -210 -305 -210
-500 0 -129 21 -218 74 -326 122 -248 367 -398 646 -398 536 1 879 556 643
1039 -87 180 -271 329 -466 378 -76 20 -208 27 -282 16z m226 -442 c69 -29
141 -110 164 -183 76 -242 -176 -469 -405 -364 -78 36 -114 71 -149 141 -88
174 10 379 204 429 45 12 131 1 186 -23z"/>
<path d="M9460 17743 c-429 -24 -741 -63 -1140 -143 -2581 -518 -4815 -2165
-6093 -4490 -488 -889 -835 -1916 -981 -2905 -78 -530 -100 -834 -101 -1390 0
-468 6 -590 46 -965 142 -1320 590 -2600 1307 -3730 611 -962 1421 -1816 2350
-2477 1248 -888 2710 -1439 4224 -1592 459 -47 353 -46 4483 -46 l3910 0 47
28 c31 18 57 44 75 75 l28 47 3 8518 2 8517 -2266 0 -2266 0 -236 81 c-792
269 -1578 422 -2411 469 -164 9 -837 11 -981 3z m963 -423 c806 -49 1551 -194
2285 -445 544 -185 1088 -437 1558 -720 67 -41 177 -101 244 -135 93 -46 120
-64 108 -71 -27 -15 -188 -39 -263 -39 -115 0 -225 24 -449 100 -253 84 -359
101 -530 82 -167 -18 -367 -94 -515 -194 -178 -121 -303 -295 -363 -503 -18
-66 -22 -104 -22 -215 0 -159 12 -213 85 -372 66 -145 83 -217 83 -358 0 -133
-22 -228 -79 -338 -47 -92 -65 -117 -137 -190 -75 -76 -186 -134 -296 -157
-103 -21 -283 -19 -417 5 -151 28 -301 35 -408 21 -349 -47 -678 -257 -847
-541 -150 -252 -195 -595 -115 -877 14 -48 61 -162 105 -253 111 -233 140
-339 140 -515 0 -233 -88 -481 -272 -766 l-56 -86 -273 -6 c-460 -9 -854 -65
-1292 -183 -1391 -374 -2575 -1285 -3294 -2534 -328 -570 -555 -1226 -652
-1885 -69 -472 -69 -1059 0 -1540 133 -931 527 -1841 1113 -2574 287 -359 619
-683 973 -949 63 -47 112 -87 109 -89 -5 -6 -243 92 -433 178 -407 184 -780
389 -1153 634 -1587 1042 -2781 2586 -3374 4365 -395 1187 -514 2403 -360
3700 200 1697 897 3252 2052 4580 151 174 580 605 747 751 998 874 2106 1482
3340 1833 461 131 985 231 1390 266 344 30 944 39 1268 20z m6467 -1667 l0
-678 -67 3 c-38 2 -98 -3 -134 -10 l-67 -14 -63 48 c-35 27 -95 65 -134 84
l-70 37 0 246 0 246 -31 66 c-34 70 -109 152 -179 194 -111 66 -266 71 -388
12 -130 -62 -206 -167 -229 -313 -10 -68 -6 -434 7 -484 5 -21 -1 -29 -36 -50
-63 -37 -178 -155 -233 -238 -87 -131 -141 -288 -153 -439 l-6 -83 -1022 0
-1022 0 1 153 c0 220 -28 347 -122 552 -36 80 -46 113 -50 170 -12 187 93 345
298 448 201 100 307 101 600 2 283 -95 359 -110 560 -109 262 0 423 41 695
178 150 76 162 84 189 129 43 71 46 137 9 204 -39 73 -135 149 -389 310 -15 9
210 12 1009 12 l1027 1 0 -677z m-850 116 c58 -26 105 -72 138 -134 26 -49 27
-56 30 -258 l4 -208 -44 8 c-23 5 -108 8 -188 7 -124 -1 -157 -5 -227 -26 -68
-21 -83 -22 -88 -11 -3 8 -5 101 -5 207 0 215 9 263 60 333 67 91 215 129 320
82z m91 -1015 c89 -26 164 -72 243 -149 106 -104 182 -120 327 -69 85 30 151
29 215 -4 56 -29 89 -67 125 -147 40 -89 43 -167 9 -238 -27 -58 -61 -87 -147
-128 -83 -40 -132 -36 -253 17 -152 67 -246 47 -323 -68 -45 -68 -77 -93 -155
-120 -227 -80 -507 31 -604 239 -78 165 -36 402 96 541 59 62 114 97 194 123
72 23 200 24 273 3z m-4325 -1569 c61 -18 125 -71 162 -133 l27 -47 3 -260 2
-260 -70 -39 c-125 -70 -226 -178 -294 -314 -72 -143 -90 -353 -43 -509 l24
-83 -302 0 -302 0 -6 133 c-9 219 -54 380 -173 622 -89 181 -104 235 -104 376
0 187 57 341 171 463 l61 66 397 0 c321 0 407 -3 447 -15z m2160 -2 c66 -22
145 -101 167 -167 15 -44 17 -114 17 -655 0 -588 -1 -607 -21 -651 -25 -55
-80 -114 -134 -143 -39 -22 -49 -22 -541 -25 l-501 -3 18 54 c55 163 47 344
-21 507 -71 169 -226 322 -390 386 -76 29 -72 13 -68 263 3 210 5 230 26 276
35 76 97 135 171 161 28 10 171 13 632 14 532 0 601 -2 645 -17z m2166 -10
c63 -29 123 -93 148 -159 19 -53 20 -75 20 -648 0 -657 1 -646 -66 -724 -19
-23 -60 -53 -92 -69 l-57 -28 -620 0 -620 0 -42 23 c-58 30 -111 86 -137 141
-21 45 -21 55 -21 656 l0 610 24 53 c30 66 107 137 170 157 38 12 146 14 646
12 591 -2 601 -2 647 -24z m-3720 -1080 c59 -27 117 -85 148 -148 36 -75 34
-180 -3 -257 -49 -101 -137 -158 -252 -166 -127 -8 -237 58 -291 173 -31 65
-33 179 -5 241 36 79 113 146 201 175 41 14 152 4 202 -18z m-565 -1020 c55
-30 107 -84 135 -142 22 -45 23 -55 23 -330 l0 -284 -81 -18 c-264 -57 -489
-235 -609 -482 -47 -97 -85 -233 -85 -304 0 -79 25 -73 -329 -73 -362 0 -378
3 -460 76 -91 81 -91 83 -91 473 l0 338 49 7 c79 10 117 47 234 223 108 162
214 355 262 476 l27 68 442 -3 c435 -3 442 -3 483 -25z m2116 11 c62 -21 135
-87 163 -149 l24 -50 0 -619 c0 -613 0 -620 -21 -664 -29 -59 -81 -109 -143
-138 l-51 -24 -461 0 -461 0 -12 89 c-37 294 -201 538 -454 681 l-58 33 3 321
c3 310 4 323 26 367 37 75 108 137 182 160 14 4 293 8 621 8 517 1 602 -1 642
-15z m2168 -10 c64 -30 114 -77 143 -136 l26 -52 0 -615 0 -616 -24 -50 c-28
-62 -101 -128 -163 -149 -69 -24 -1216 -24 -1285 0 -61 20 -117 70 -153 135
l-30 54 -3 580 c-2 319 0 603 3 631 12 100 101 204 199 233 18 6 289 9 636 8
592 -2 606 -2 651 -23z m-6273 -1086 c-3 -323 -4 -346 -24 -388 -27 -59 -76
-107 -139 -136 l-50 -24 -531 0 -531 0 -6 83 c-4 45 -7 191 -7 324 l0 242 78
25 c329 103 728 177 1137 209 22 2 48 4 58 5 17 2 18 -16 15 -340z m-1708
-271 c0 -114 6 -257 15 -328 90 -775 513 -1459 1165 -1884 546 -357 1207 -493
1870 -385 440 72 828 238 1177 506 l82 63 73 -58 c255 -204 620 -383 949 -466
789 -200 1665 -19 2281 472 37 29 69 53 72 53 3 0 49 -32 103 -71 337 -244
786 -435 1176 -500 l77 -13 0 -733 c0 -403 -2 -733 -5 -733 -3 0 -68 21 -143
46 -293 98 -563 253 -763 440 -87 82 -120 98 -194 98 -74 0 -99 -13 -218 -112
-428 -359 -939 -538 -1477 -519 -176 7 -297 23 -451 62 -311 79 -627 244 -897
469 -125 104 -179 123 -263 94 -18 -6 -91 -49 -161 -95 -560 -366 -1239 -550
-1958 -530 -676 19 -1272 211 -1830 588 -318 215 -631 520 -856 835 -280 393
-474 841 -568 1309 -52 261 -58 336 -63 765 l-4 405 108 66 c232 143 646 358
691 359 9 0 12 -47 12 -203z m4103 163 c224 -69 367 -297 329 -522 -59 -343
-442 -510 -730 -318 -107 71 -180 187 -202 321 -38 226 116 463 341 523 79 21
185 20 262 -4z m-5319 -1310 c103 -869 465 -1629 1071 -2249 774 -792 1834
-1208 2936 -1151 489 25 904 114 1315 283 172 70 420 198 544 280 25 16 27 15
120 -54 362 -269 796 -442 1255 -500 144 -18 454 -15 605 5 460 62 881 235
1256 517 l42 31 88 -67 c262 -197 590 -352 934 -440 l85 -21 3 -1143 2 -1142
-59 41 c-97 65 -192 151 -207 185 -35 86 -109 135 -201 135 -73 0 -101 -15
-201 -105 -217 -197 -409 -326 -635 -427 -795 -353 -1706 -200 -2392 402 -73
65 -125 89 -187 90 -39 0 -67 -10 -150 -55 -632 -341 -1222 -526 -1918 -601
-234 -26 -741 -26 -970 -1 -735 81 -1400 308 -2009 687 -1117 694 -1894 1810
-2151 3090 -78 391 -90 553 -90 1269 l0 583 99 132 c194 257 439 521 676 729
l110 97 7 -232 c3 -128 13 -294 22 -368z m2736 414 c39 -12 66 -29 106 -68 86
-86 84 -73 84 -688 l0 -529 -22 6 c-30 9 -153 76 -250 136 -246 152 -492 393
-661 649 -75 113 -180 321 -221 438 l-26 72 468 0 c398 0 476 -2 522 -16z
m1695 -36 c39 -67 184 -214 260 -263 81 -53 195 -101 285 -121 41 -9 81 -18
88 -20 9 -3 12 -78 12 -334 l0 -331 -62 -39 c-254 -162 -566 -272 -892 -315
-201 -26 -641 -14 -695 19 -8 5 -11 192 -11 624 0 599 1 618 21 662 23 51 59
92 107 122 71 44 99 47 487 47 l370 1 30 -52z m2592 37 c65 -19 139 -85 169
-150 l24 -50 0 -615 c0 -338 -3 -626 -7 -639 l-6 -24 -141 6 c-495 21 -984
230 -1353 579 -34 32 -82 68 -107 79 l-46 20 0 214 0 215 43 21 c114 58 244
176 326 297 l42 62 503 0 c417 0 511 -3 553 -15z m2175 -12 c26 -12 67 -42 92
-67 76 -79 76 -79 76 -578 0 -241 -3 -438 -6 -438 -13 0 -155 104 -257 188
-184 151 -240 151 -410 0 -186 -165 -343 -271 -545 -365 -106 -50 -332 -128
-399 -139 l-43 -7 0 594 c1 541 2 599 18 645 29 84 91 146 176 176 47 16 98
18 651 15 593 -2 601 -2 647 -24z m-10518 -2208 c188 -1766 1252 -3298 2844
-4094 424 -212 944 -382 1412 -460 1124 -189 2266 -18 3286 492 l129 64 119
-88 c321 -241 677 -404 1066 -487 349 -75 749 -74 1100 4 379 85 782 281 1081
525 l45 37 59 -50 c78 -64 259 -185 358 -238 l77 -42 0 -999 0 -999 -3747 3
c-3496 2 -3758 4 -3893 20 -408 49 -769 131 -1113 251 -1563 546 -2753 1845
-3162 3451 -271 1064 -178 2208 261 3200 l49 110 6 -270 c4 -148 14 -342 23
-430z"/>
</g>
</svg>
